# xmcd CD Database Entry
#
# Track frame offsets:
# 150
# 20596
# 43959
# 60729
# 77843
# 89260
# 110334
# 134288
# 157652
# 175182
# 196259
# 220995
#
# Disc length: 3169 seconds
#
# Revision: 4
# Processed by: cddbd v1.4PL0 Copyright (c) Steve Scherf et al.
# Submitted via: tcd 2.0b
#
DISCID=9d0c5f0c
DTITLE=STING - Ten Summoner's tales
DYEAR=1900
DGENRE=
TTITLE0=Prologue (If I ever lose my faith in you)
TTITLE1=Love is stronger than justice (The munificent seven)
TTITLE2=Fields of gold
TTITLE3=Heavy cloud no rain
TTITLE4=She's too good for me
TTITLE5=Seven days
TTITLE6=Saint Augustine in hell
TTITLE7=It's probably me
TTITLE8=Everybody laughed but you
TTITLE9=Shape of my heart
TTITLE10=Something the boy said
TTITLE11=Epilogue (Nothing 'bout me)
EXTD=
EXTT0=
EXTT1=
EXTT2=
EXTT3=
EXTT4=
EXTT5=
EXTT6=
EXTT7=
EXTT8=
EXTT9=
EXTT10=
EXTT11=
PLAYORDER=
